<?xml version="1.0" encoding="utf-8"?>
<!-- Generator: Adobe Illustrator 22.0.1, SVG Export Plug-In . SVG Version: 6.00 Build 0)  -->
<svg version="1.1" id="Layer_1" xmlns="http://www.w3.org/2000/svg" xmlns:xlink="http://www.w3.org/1999/xlink" x="0px" y="0px"
	 viewBox="0 0 704.1 768" style="enable-background:new 0 0 704.1 768;" xml:space="preserve">
<style type="text/css">
	.st0{fill:#7D7E81;}
	.st1{fill:none;stroke:#7D7E81;stroke-miterlimit:10;}
	.st2{fill:none;stroke:#7D7E81;stroke-miterlimit:10;stroke-dasharray:7.4312,7.4312;}
	.st3{fill:none;stroke:#7D7E81;stroke-miterlimit:10;stroke-dasharray:9.4732,9.4732;}
	.st4{fill:none;stroke:#7D7E81;stroke-miterlimit:10;stroke-dasharray:8.1834,8.1834;}
	.st5{fill:none;stroke:#7D7E81;stroke-width:3;stroke-miterlimit:10;}
	.st6{fill:#ED4E0F;}
	.st7{font-family:'ArialMT';}
	.st8{font-size:24.5821px;}
	.st9{fill-rule:evenodd;clip-rule:evenodd;fill:none;stroke:#666666;stroke-miterlimit:10;}
	.st10{fill:#666666;}
	.st11{font-size:22.5693px;}
	.st12{font-size:24.074px;}
	.st13{fill:none;stroke:#7D7E81;stroke-miterlimit:10;stroke-dasharray:8.3905,8.3905;}
	.st14{fill:none;stroke:#7D7E81;stroke-miterlimit:10;stroke-dasharray:7.5087,7.5087;}
	.st15{fill:none;stroke:#7D7E81;stroke-miterlimit:10;stroke-dasharray:7.7849,7.7849;}
	.st16{fill:none;stroke:#7D7E81;stroke-width:5;stroke-miterlimit:10;}
	.st17{clip-path:url(#SVGID_2_);}
</style>
<g>
	<g>
		<ellipse class="st0" cx="336" cy="143.8" rx="11.2" ry="11.6"/>
		<rect x="330.7" y="171.4" class="st0" width="10.6" height="47.5"/>
		<rect x="326.6" y="218.5" class="st0" width="19" height="292.2"/>
		<rect x="321" y="504.2" class="st0" width="30.2" height="262"/>
	</g>
	<g>
		<path class="st0" d="M335.2,48.3c-27.9,0.7-52.7,13.5-69.9,33.5l5.6,4.2c16-18.3,38.9-30,64.5-30.6c27.1-0.6,51.7,11.3,68.6,30.6
			l5.9-3.8C391.5,60.8,364.8,47.6,335.2,48.3z"/>
		<path class="st0" d="M335.6,67.2C313.6,67.8,294,77.6,280.1,93l4.5,3.4c12.9-14,30.9-22.9,51.1-23.4c20.9-0.5,40,8.2,53.6,22.6
			l4.8-3.1C379.4,76.5,358.5,66.7,335.6,67.2z"/>
		<path class="st0" d="M336,87.5c-15.6,0.4-29.6,7-39.9,17.5l3.4,2.6c9.5-9.5,22.3-15.4,36.6-15.7c14.2-0.3,27.3,5,37.3,14.1
			l3.7-2.4C366.3,93.3,351.8,87.2,336,87.5z"/>
		<path class="st0" d="M336.5,110.3c-8.4,0.2-16.1,3.3-22.2,8.4l2.2,1.7c5.6-4.4,12.5-7.1,20.1-7.3c6.7-0.2,13,1.7,18.3,5l2.4-1.6
			C351.3,112.4,344.2,110.1,336.5,110.3z"/>
	</g>
</g>
<g>
	<g>
		<line class="st1" x1="418.3" y1="189.6" x2="414.3" y2="189.6"/>
		<line class="st2" x1="406.8" y1="189.6" x2="380.8" y2="189.6"/>
		<polyline class="st1" points="377.1,189.6 376.8,189.6 373.1,189.6 		"/>
	</g>
</g>
<g>
	<g>
		<line class="st1" x1="418.1" y1="447.7" x2="414.1" y2="447.7"/>
		<line class="st3" x1="404.7" y1="447.7" x2="390.4" y2="447.7"/>
		<polyline class="st1" points="385.7,447.7 384.6,447.7 381.7,447.7 		"/>
	</g>
</g>
<g>
	<g>
		<line class="st1" x1="380.8" y1="643.4" x2="380.8" y2="639.4"/>
		<polyline class="st4" points="380.8,631.2 380.8,463 380.8,455.3 		"/>
		<line class="st1" x1="380.8" y1="451.2" x2="380.8" y2="447.2"/>
	</g>
</g>
<g>
	<polygon class="st5" points="517.7,744.9 366.2,744.9 383.5,658.5 500.4,658.5 	"/>
	<line class="st5" x1="442" y1="658.5" x2="442" y2="744.9"/>
	<line class="st5" x1="413.1" y1="658.5" x2="404.9" y2="744.9"/>
	<line class="st5" x1="470.8" y1="658.5" x2="482.3" y2="744.9"/>
	<line class="st5" x1="375.3" y1="700.4" x2="508.7" y2="700.4"/>
</g>
<text transform="matrix(0.9627 0 0 1 17.1868 478.5137)" class="st6 st7 st8">LOCAL CONNECTIVITY</text>
<text transform="matrix(0.9627 0 0 1 17.1868 161.0381)" class="st6 st7 st8">GLOBAL CONNECTIVITY</text>
<ellipse class="st9" cx="426.5" cy="189.6" rx="8.2" ry="8.5"/>
<ellipse class="st9" cx="427.1" cy="448.6" rx="8.2" ry="8.5"/>
<text transform="matrix(0.9627 0 0 1 17.1868 510.2812)" class="st10 st7 st11">WiFi AP and Cellular BTS</text>
<text transform="matrix(0.9627 0 0 1 444.618 442.8682)" class="st6 st7 st12">SOLAR PANEL &amp; HUT</text>
<text transform="matrix(0.9627 0 0 1 444.618 470.1211)"><tspan x="0" y="0" class="st10 st7 st11">Cache server </tspan><tspan x="0" y="27.1" class="st10 st7 st11">HF Radio </tspan><tspan x="0" y="54.2" class="st10 st7 st11">12v Batteries or generator</tspan><tspan x="0" y="81.2" class="st10 st7 st11">Boost &amp; Charge controller</tspan></text>
<text transform="matrix(0.9627 0 0 1 444.4519 188.9355)" class="st6 st7 st12">TELESCOPIC MAST</text>
<text transform="matrix(0.9627 0 0 1 444.451 214.3662)" class="st10 st7 st11">15 meters </text>
<text transform="matrix(0.9627 0 0 1 16.6712 189.7969)" class="st10 st7 st11">Shortwave, HF radio </text>
<g>
	<g>
		<line class="st1" x1="132.4" y1="357.7" x2="136.4" y2="357.7"/>
		<polyline class="st13" points="144.8,357.7 271,357.7 274.9,357.7 		"/>
		<line class="st1" x1="279.1" y1="357.7" x2="283.1" y2="357.7"/>
	</g>
</g>
<g>
	<g>
		<line class="st1" x1="132.4" y1="308" x2="136.4" y2="308"/>
		<polyline class="st13" points="144.8,308 271,308 274.9,308 		"/>
		<line class="st1" x1="279.1" y1="308" x2="283.1" y2="308"/>
	</g>
</g>
<g>
	<g>
		<line class="st1" x1="132.2" y1="432.5" x2="132.3" y2="428.5"/>
		<line class="st14" x1="132.3" y1="421" x2="132.3" y2="364.7"/>
		<line class="st1" x1="132.3" y1="360.9" x2="132.3" y2="356.9"/>
		<g>
			<polygon class="st0" points="137.2,431.1 132.2,439.7 127.3,431 			"/>
		</g>
	</g>
</g>
<g>
	<g>
		<line class="st1" x1="132.3" y1="215.1" x2="132.3" y2="219.1"/>
		<polyline class="st15" points="132.3,226.9 132.2,300.7 132.2,300.9 		"/>
		<line class="st1" x1="132.2" y1="304.8" x2="132.2" y2="308.8"/>
		<g>
			<polygon class="st0" points="127.3,216.6 132.3,208 137.3,216.6 			"/>
		</g>
	</g>
</g>
<line class="st16" x1="385.2" y1="746.6" x2="385.2" y2="766.2"/>
<line class="st16" x1="498.2" y1="746.6" x2="498.2" y2="766.2"/>
<g>
	<rect x="166.2" y="714.1" class="st10" width="77.8" height="53.6"/>
	<polygon class="st10" points="265.7,710.6 205.1,710.1 144.5,710.6 205.1,637.3 	"/>
</g>
<g>
	<g>
		<defs>
			<ellipse id="SVGID_1_" cx="74.5" cy="71.2" rx="52.1" ry="54"/>
		</defs>
		<clipPath id="SVGID_2_">
			<use xlink:href="#SVGID_1_"  style="overflow:visible;"/>
		</clipPath>
		<g class="st17">
			<path class="st10" d="M45.8,30c-3.3,2.1-3.4,2.9-7.9,4.8c-4.5,1.9-5.5,1.3-8.8,7.2c-3.3,5.9-8.9,14.4-8.1,19.6
				c0.8,5.3-0.3,8.2,2.4,11c2.7,2.8,3.9,4.9,4.7,6.7c0.6,1.3-0.6,2.3-0.6,4.5s0.3,2.3,2.1,2.3c1.8,0,0,1.5,1.6,4.1
				c1.6,2.6,1.8,3.4,4,9.8c2.1,6.4,6.4,15.7,12.2,19.9c5.8,4.2-3.1-3.7-3.5-7.6c-0.4-4,1.6-4,1.6-7c0-3.1,2.8-0.1,3.7-2.3
				c0.8-2.2-0.3-5,0.7-8.1c1-3.1,1.1-5.3-2.7-6.9c-3.8-1.6-6.5-4.4-7.8-6.3c-1.3-1.9-2.4-3.1-5-4.5c-2.5-1.5-3.7,0.3-5.4-0.9
				c-1.7-1.2-1-1.6-2.5-4.2c-1.6-2.6-2.7-1.9-2.8-4.1c-0.1-2.2,2.5-5.6,3-5.3c0.4,0.3,0,3.4,1.1,3.5c1.1,0.1-0.4-3.2,0.8-5.4
				c1.3-2.2,2.3-5.3,5.1-7c2.8-1.8,3-3.5,6.1-4.1c3.1-0.6,0-4.1,2.1-3.8c2.1,0.3,3.5,2.3,4-0.1c0.4-2.5,0.1-1.9-2.3-4.7
				c-2.4-2.8-4.7-4-5.9-0.6c-1.3,3.4-2,6.3-3.5,4.5c-1.6-1.8-0.8-4.5,0.7-5.3c1.6-0.7,4.8-4.2,7.1-2.8c2.3,1.5,4.7,1,5.1-0.6
				c0.4-1.6-2.7-2.8-1-4.5c1.7-1.8,5.1-2.5,5.1-0.4c0,2.1-1.4,4.4,0.4,5.1c1.8,0.7,6.4-2.1,7.6-2.3c1.3-0.3,5.1-0.7,7.2-2.5
				c2.1-1.8,4.5-4.5,5.8-5.4c1.3-0.9-5.2-1.3-8.5-0.4c-3.3,0.9-7.4,1.6-10.6,2.1C49.8,28.4,47.6,28.9,45.8,30z"/>
			<path class="st10" d="M27.5,67.6c-0.4,1.2,0.7-0.3,1.4,1.8c0.7,2.1-1.1,1.9,1,2.5c2.1,0.6,5.1,0.7,4-0.7
				C32.7,69.7,27.7,66.7,27.5,67.6z"/>
			<path class="st10" d="M66.9,33.5c-1.4,0.5-3.4,1.3-1.3,1.6c2.1,0.3,5.5,0,5-1.2C70,32.8,67.9,33.1,66.9,33.5z"/>
			<path class="st10" d="M108.8,95.7c-1.7,0.4-2.1,1.2-3,2.3c-0.8,1.2-1,2.9-1.6,4.4c-0.6,1.5,0.3,2.8,1.7,0.9
				C107.4,101.4,110.5,95.3,108.8,95.7z"/>
			<path class="st10" d="M72.6,37.6c-1.4,1.6-4.1,5-2.4,4.7c1.7-0.3,3-2.6,3.1-1c0.1,1.6,3.1,1.8,3.3,0.3
				C76.7,40.1,74.9,34.9,72.6,37.6z"/>
			<path class="st10" d="M125.6,52.4c0,0-8.8-19.3-12.7-18.6c-4,0.7-4.2,0.4-7.9,0.7c-3.7,0.3-0.7-1.8-2.3-2.8
				c-1.6-1-2.8,2.9-4.8,2.6c-2-0.3-2.7-0.4-5.1-2.8c-2.4-2.3-5.1-0.6-7.2,0.4c-2.1,1-3.7,2.6-5.4,3.8c-1.7,1.2,0.7,1.5,2.1,2.1
				c1.4,0.6,3.5,0.7,4.8-0.3c1.3-1,0.6-2.5,2.4-3.2c1.8-0.7-0.1,2.6,0.6,4.4c0.7,1.8-2,1.8-3.7,1.9c-1.7,0.1-2.5-0.1-5.2-1.3
				c-2.7-1.2-2.1,2.6-3.1,3.1c-1,0.4-4.8,1.8-4.5,3.2c0.3,1.5,2.5,2.9,0.6,2.6c-2-0.3-4.5,1-4.7,2.6c-0.1,1.6,1.8,4.1,2.7,4.2
				c0.8,0.1,4-0.9,4.5-2.5c0.6-1.6,1.8-2.6,4.1-3.5c2.3-0.9,3,0,4.5,2.1c1.6,2.1-0.1,1.8,0.6,3.4c0.7,1.6,1.8-2.1,2.7-1.7
				c0.8,0.3,3.4,3.2,3.8,1.6c0.4-1.6,1-2.1,2-0.6c1,1.5,5,1.8,5.9,3.4c1,1.6-2.3,2.2-3.7,1.9c-1.4-0.3-7.4-0.1-8.8-0.4
				c-1.4-0.3-3.7-1.9-4.5-4.5c-0.8-2.6-4-0.6-5.5,0.3c-1.6,0.9-5.9,1.3-7.2,2.2c-1.2,0.9-2.2,3.5-4,5.3c-1.8,1.8-3.1,4.7-2.7,6.4
				c0.4,1.8-0.1,6.6,1.6,9.8c1.7,3.2,6.4,4.4,9.8,4.4s5.4-0.4,6.9,0.7c1.6,1.2,3.1,8.8,3.7,11.4c0.6,2.6-2,6.2-1.4,8.6
				c0.6,2.5,2,8.2,3.8,9.4c1.8,1.2,9.6-4.5,10.5-6.9c0.8-2.3,3-6,5.3-8.2c2.4-2.2,0-4.5,0.5-8.5c0.4-4,5.8-8.5,6.4-10.3
				c0.6-1.8-1.3-1.5-4.7-2.2c-3.4-0.7-5.2-10.3-5.7-12.7c-0.4-2.5,1,0.4,2.1,2.6c1.1,2.2,3.1,6.4,4.5,9.2c1.4,2.8,3.7-1.9,5.9-3.5
				c2.3-1.6,1.8-3.8,1.3-5.3c-0.6-1.5-3.3-1.6-4.4-3.1c-1.1-1.5-0.3-2.6,1.1-0.3c1.4,2.3,4,2.5,5.5,2.3c1.6-0.1,3.1,2.9,3.5,5.6
				c0.4,2.6,3.7,8.5,3.7,8.5s0.1-5.3,0.4-7.5c0.3-2.2,1.4-4.2,3.4-4.8L125.6,52.4z M101.3,51.2c-1.6,0.3-2.8-0.9-4.2-0.4
				c-1.4,0.4-1.3-0.6-0.4-2.3c0.8-1.6,1.7-0.6,3.5,0.3C102,49.6,102.8,50.9,101.3,51.2z M109.3,56.2c-1.5,0.1-0.6-2.5-2.6-4.4
				c-2-1.9-0.9-2.6,0.8-3.4c1.2-0.5,0.3,2.1,1.8,3.5C110.8,53.4,110.8,56,109.3,56.2z"/>
		</g>
	</g>
</g>
<polygon class="st10" points="184.3,655.8 110.3,566.2 15.1,681.4 110.3,680.5 163.4,681 "/>
<polygon class="st10" points="161.2,714.1 136.1,714.1 159.9,685.3 47.9,685.3 47.9,768 97.3,768 97.3,721.8 124.1,721.8 124.1,768 
	157.4,768 157.4,767.7 161.2,767.7 "/>
</svg>
