<?xml version="1.0" encoding="utf-8"?>
<!-- Generator: Adobe Illustrator 22.0.1, SVG Export Plug-In . SVG Version: 6.00 Build 0)  -->
<svg version="1.1" id="Layer_1" xmlns="http://www.w3.org/2000/svg" xmlns:xlink="http://www.w3.org/1999/xlink" x="0px" y="0px"
	 viewBox="0 0 548.1 616.3" style="enable-background:new 0 0 548.1 616.3;" xml:space="preserve">
<style type="text/css">
	.st0{fill:#7D7E81;}
	.st1{fill:none;stroke:#7D7E81;stroke-miterlimit:10;}
	.st2{fill:none;stroke:#7D7E81;stroke-miterlimit:10;stroke-dasharray:9.1421,9.1421;}
	.st3{fill:none;stroke:#7D7E81;stroke-miterlimit:10;stroke-dasharray:6.8574,6.8574;}
	.st4{fill:none;stroke:#7D7E81;stroke-miterlimit:10;stroke-dasharray:7.681,7.681;}
	.st5{fill:none;stroke:#7D7E81;stroke-width:3;stroke-miterlimit:10;}
	.st6{fill:#ED4E0F;}
	.st7{font-family:'ArialMT';}
	.st8{font-size:19.2854px;}
	.st9{fill:none;stroke:#666666;stroke-miterlimit:10;}
	.st10{fill:#666666;}
	.st11{font-size:17.7063px;}
	.st12{font-size:18.8868px;}
	.st13{fill:none;stroke:#7D7E81;stroke-miterlimit:10;stroke-dasharray:8.4754,8.4754;}
	.st14{fill:none;stroke:#7D7E81;stroke-miterlimit:10;stroke-dasharray:7.1067,7.1067;}
	.st15{fill:none;stroke:#7D7E81;stroke-miterlimit:10;stroke-dasharray:7.1013,7.1013;}
	.st16{fill:none;stroke:#7D7E81;stroke-width:5;stroke-miterlimit:10;}
	.st17{clip-path:url(#SVGID_2_);}
</style>
<g>
	<g>
		<ellipse class="st0" cx="259.9" cy="112.7" rx="8.8" ry="9.1"/>
		<rect x="255.8" y="134.4" class="st0" width="8.4" height="37.3"/>
		<rect x="252.5" y="171.3" class="st0" width="14.9" height="229.3"/>
		<rect x="248.1" y="395.5" class="st0" width="23.7" height="205.5"/>
	</g>
	<g>
		<path class="st0" d="M259.2,37.8c-21.9,0.5-41.4,10.6-54.9,26.3l4.4,3.3c12.5-14.4,30.5-23.6,50.6-24c21.3-0.5,40.5,8.8,53.8,24
			l4.6-3C303.5,47.6,282.5,37.2,259.2,37.8z"/>
		<path class="st0" d="M259.6,52.6c-17.2,0.4-32.6,8.1-43.5,20.2l3.6,2.7c10.1-11,24.3-18,40.1-18.4c16.4-0.4,31.3,6.4,42,17.7
			l3.8-2.5C293.9,59.9,277.6,52.2,259.6,52.6z"/>
		<path class="st0" d="M259.9,68.6c-12.2,0.3-23.2,5.5-31.3,13.7l2.7,2c7.5-7.4,17.5-12.1,28.7-12.3c11.2-0.3,21.4,3.9,29.2,11
			l2.9-1.9C283.6,73.1,272.3,68.3,259.9,68.6z"/>
		<path class="st0" d="M260.3,86.4c-6.6,0.2-12.6,2.6-17.4,6.6l1.7,1.3c4.4-3.5,9.8-5.6,15.7-5.7c5.2-0.1,10.2,1.3,14.4,3.9l1.9-1.3
			C271.9,88.1,266.3,86.3,260.3,86.4z"/>
	</g>
</g>
<g>
	<g>
		<line class="st1" x1="324.4" y1="148.7" x2="320.4" y2="148.7"/>
		<line class="st2" x1="311.3" y1="148.7" x2="297.6" y2="148.7"/>
		<polyline class="st1" points="293,148.7 291.9,148.7 289,148.7 		"/>
	</g>
</g>
<g>
	<g>
		<line class="st1" x1="324.3" y1="351.1" x2="320.3" y2="351.1"/>
		<line class="st3" x1="313.5" y1="351.1" x2="303.2" y2="351.1"/>
		<polyline class="st1" points="299.8,351.1 298.1,351.1 295.8,351.1 		"/>
	</g>
</g>
<g>
	<g>
		<line class="st1" x1="295.1" y1="504.7" x2="295.1" y2="500.7"/>
		<polyline class="st4" points="295.1,493 295.1,363.1 295.1,358.6 		"/>
		<line class="st1" x1="295.1" y1="354.7" x2="295.1" y2="350.7"/>
	</g>
</g>
<g>
	<polygon class="st5" points="402.5,584.3 283.6,584.3 297.2,516.5 388.9,516.5 	"/>
	<line class="st5" x1="343" y1="516.5" x2="343" y2="584.3"/>
	<line class="st5" x1="320.4" y1="516.5" x2="314" y2="584.3"/>
	<line class="st5" x1="365.6" y1="516.5" x2="374.7" y2="584.3"/>
	<line class="st5" x1="290.7" y1="549.4" x2="395.4" y2="549.4"/>
</g>
<text transform="matrix(0.9627 0 0 1 9.7302 375.2684)" class="st6 st7 st8">LOCAL CONNECTIVITY</text>
<text transform="matrix(0.9627 0 0 1 9.7302 126.1996)" class="st6 st7 st8">GLOBAL CONNECTIVITY</text>
<ellipse class="st9" cx="330.9" cy="148.6" rx="6.4" ry="6.7"/>
<ellipse class="st9" cx="331.4" cy="351.8" rx="6.4" ry="6.7"/>
<text transform="matrix(0.9627 0 0 1 9.7302 400.1913)" class="st10 st7 st11">WiFi AP and Cellular BTS</text>
<text transform="matrix(0.9627 0 0 1 345.0637 347.3036)" class="st6 st7 st12">SOLAR PANEL &amp; HUT</text>
<text transform="matrix(0.9627 0 0 1 345.0637 368.6844)" class="st10 st7 st11">Cache server </text>
<text transform="matrix(0.9627 0 0 1 345.0637 389.8846)" class="st10 st7 st11">HF Radio </text>
<text transform="matrix(0.9627 0 0 1 345.0637 411.1844)" class="st10 st7 st11">12v Batteries or generator</text>
<text transform="matrix(0.9627 0 0 1 345.0637 432.3846)" class="st10 st7 st11">Boost &amp; Charge controller</text>
<text transform="matrix(0.9627 0 0 1 344.9329 148.0858)" class="st6 st7 st12">TELESCOPIC MAST</text>
<text transform="matrix(0.9627 0 0 1 344.9329 168.037)" class="st10 st7 st11">15 meters </text>
<text transform="matrix(0.9627 0 0 1 9.3259 148.7621)" class="st10 st7 st11">Shortwave, HF radio </text>
<g>
	<g>
		<line class="st1" x1="100.2" y1="280.5" x2="104.2" y2="280.5"/>
		<polyline class="st13" points="112.7,280.5 208.9,280.5 210.1,280.5 		"/>
		<line class="st1" x1="214.4" y1="280.5" x2="218.4" y2="280.5"/>
	</g>
</g>
<g>
	<g>
		<line class="st1" x1="100.2" y1="241.5" x2="104.2" y2="241.5"/>
		<polyline class="st13" points="112.7,241.5 208.9,241.5 210.1,241.5 		"/>
		<line class="st1" x1="214.4" y1="241.5" x2="218.4" y2="241.5"/>
	</g>
</g>
<g>
	<g>
		<line class="st1" x1="100" y1="337.6" x2="100.1" y2="333.6"/>
		<line class="st14" x1="100.1" y1="326.5" x2="100.1" y2="287.5"/>
		<line class="st1" x1="100.1" y1="283.9" x2="100.1" y2="279.9"/>
		<g>
			<polygon class="st0" points="105,336.2 100,344.8 95.1,336.2 			"/>
		</g>
	</g>
</g>
<g>
	<g>
		<line class="st1" x1="100.1" y1="170.2" x2="100.1" y2="174.2"/>
		<line class="st15" x1="100.1" y1="181.3" x2="100" y2="234.6"/>
		<line class="st1" x1="100" y1="238.1" x2="100" y2="242.1"/>
		<g>
			<polygon class="st0" points="95.1,171.7 100.1,163 105.1,171.7 			"/>
		</g>
	</g>
</g>
<line class="st16" x1="298.5" y1="585.6" x2="298.5" y2="601"/>
<line class="st16" x1="387.1" y1="585.6" x2="387.1" y2="601"/>
<g>
	<rect x="126.7" y="560.1" class="st10" width="61.1" height="42.1"/>
	<polygon class="st10" points="204.7,557.4 157.2,557 109.7,557.4 157.2,499.9 	"/>
</g>
<g>
	<g>
		<g>
			<defs>
				<ellipse id="SVGID_1_" cx="54.7" cy="55.8" rx="40.9" ry="42.4"/>
			</defs>
			<clipPath id="SVGID_2_">
				<use xlink:href="#SVGID_1_"  style="overflow:visible;"/>
			</clipPath>
			<g class="st17">
				<path class="st10" d="M32.3,23.4c-2.6,1.6-2.7,2.3-6.2,3.8c-3.6,1.5-4.3,1-6.9,5.6s-7,11.3-6.3,15.4s-0.2,6.4,1.9,8.6
					s3,3.8,3.7,5.3c0.4,1-0.4,1.8-0.4,3.6c0,1.8,0.2,1.8,1.7,1.8c1.4,0,0,1.1,1.2,3.2c1.2,2.1,1.4,2.6,3.1,7.7s5,12.3,9.5,15.6
					c4.5,3.3-2.4-2.9-2.8-6c-0.3-3.1,1.2-3.1,1.2-5.5s2.2-0.1,2.9-1.8c0.7-1.7-0.2-3.9,0.6-6.3c0.8-2.4,0.9-4.1-2.1-5.4
					c-3-1.3-5.1-3.4-6.1-4.9c-1-1.5-1.9-2.4-3.9-3.6c-2-1.1-2.9,0.2-4.2-0.7s-0.8-1.3-2-3.3C16,54.4,15.1,55,15,53.3
					c-0.1-1.7,2-4.4,2.3-4.1c0.3,0.2,0,2.6,0.9,2.8c0.9,0.1-0.3-2.5,0.7-4.3c1-1.7,1.8-4.1,4-5.5c2.2-1.4,2.3-2.8,4.8-3.2
					c2.4-0.5,0-3.2,1.7-3s2.8,1.8,3.1-0.1c0.3-2,0.1-1.5-1.8-3.7C28.8,30,27,29.1,26,31.7c-1,2.6-1.6,4.9-2.8,3.6
					c-1.2-1.4-0.7-3.6,0.6-4.1c1.2-0.6,3.8-3.3,5.5-2.2c1.8,1.1,3.7,0.8,4-0.5c0.3-1.3-2.1-2.2-0.8-3.6c1.3-1.4,4-2,4-0.3
					c0,1.6-1.1,3.4,0.3,4c1.4,0.6,5-1.6,6-1.8c1-0.2,4-0.6,5.7-2c1.7-1.4,3.6-3.6,4.5-4.3c1-0.7-4.1-1-6.7-0.3
					c-2.6,0.7-5.8,1.3-8.3,1.6C35.4,22.1,33.6,22.5,32.3,23.4z"/>
				<path class="st10" d="M17.8,52.9c-0.3,0.9,0.6-0.2,1.1,1.4c0.6,1.6-0.9,1.5,0.8,2c1.7,0.5,4,0.6,3.1-0.6
					C21.9,54.5,18.1,52.2,17.8,52.9z"/>
				<path class="st10" d="M48.8,26.2c-1.1,0.4-2.7,1-1,1.3c1.7,0.2,4.3,0,3.9-0.9C51.2,25.6,49.6,25.9,48.8,26.2z"/>
				<path class="st10" d="M81.6,75c-1.3,0.3-1.7,0.9-2.3,1.8c-0.7,0.9-0.8,2.3-1.2,3.4c-0.4,1.1,0.2,2.2,1.3,0.7
					C80.5,79.5,83,74.6,81.6,75z"/>
				<path class="st10" d="M53.2,29.4c-1.1,1.3-3.2,3.9-1.9,3.7s2.3-2.1,2.4-0.8c0.1,1.3,2.4,1.4,2.6,0.2
					C56.5,31.3,55.1,27.3,53.2,29.4z"/>
				<path class="st10" d="M94.8,41c0,0-6.9-15.2-10-14.6s-3.3,0.3-6.2,0.6c-2.9,0.2-0.6-1.4-1.8-2.2c-1.2-0.8-2.2,2.3-3.8,2.1
					c-1.6-0.2-2.1-0.3-4-2.2c-1.9-1.8-4-0.5-5.7,0.3c-1.7,0.8-2.9,2.1-4.2,3s0.6,1.1,1.7,1.6c1.1,0.5,2.8,0.6,3.8-0.2
					c1-0.8,0.4-2,1.9-2.5c1.4-0.6-0.1,2.1,0.4,3.4c0.6,1.4-1.6,1.4-2.9,1.5c-1.3,0.1-2-0.1-4.1-1s-1.7,2.1-2.4,2.4
					c-0.8,0.3-3.8,1.4-3.6,2.5c0.2,1.1,2,2.3,0.4,2.1s-3.6,0.8-3.7,2.1c-0.1,1.3,1.4,3.2,2.1,3.3c0.7,0.1,3.1-0.7,3.6-2
					c0.4-1.3,1.4-2.1,3.2-2.8c1.8-0.7,2.3,0,3.6,1.6c1.2,1.6-0.1,1.4,0.4,2.6c0.6,1.3,1.4-1.6,2.1-1.4s2.7,2.5,3,1.2
					s0.8-1.6,1.6-0.5c0.8,1.1,3.9,1.4,4.7,2.6c0.8,1.3-1.8,1.7-2.9,1.5s-5.8-0.1-6.9-0.3c-1,0-2.8-1.3-3.4-3.3
					c-0.7-2.1-3.1-0.5-4.3,0.2s-4.7,1-5.6,1.7c-0.9,0.7-1.7,2.8-3.2,4.1c-1.4,1.4-2.4,3.7-2.1,5.1c0.3,1.4-0.1,5.2,1.2,7.7
					s5,3.4,7.7,3.4s4.2-0.3,5.4,0.6s2.4,6.9,2.9,9c0.4,2.1-1.6,4.8-1.1,6.8c0.4,2,1.6,6.4,3,7.4c1.4,0.9,7.5-3.6,8.2-5.4
					s2.3-4.7,4.2-6.4c1.9-1.7,0-3.6,0.4-6.7c0.3-3.1,4.5-6.7,5-8c0.4-1.4-1-1.1-3.7-1.7c-2.7-0.6-4.1-8-4.4-10s0.8,0.3,1.7,2.1
					c0.9,1.7,2.4,5.1,3.6,7.2c1.1,2.2,2.9-1.5,4.7-2.8c1.8-1.3,1.4-3,1-4.1s-2.6-1.3-3.4-2.4c-0.9-1.1-0.2-2.1,0.9-0.2
					c1.1,1.8,3.1,2,4.3,1.8c1.2-0.1,2.4,2.3,2.8,4.4c0.3,2.1,2.9,6.7,2.9,6.7s0.1-4.1,0.3-5.9c0.2-1.7,1.1-3.3,2.7-3.8L94.8,41z
					 M75.8,40.1c-1.2,0.2-2.2-0.7-3.3-0.3c-1.1,0.3-1-0.5-0.3-1.8s1.3-0.5,2.8,0.2C76.3,38.8,77,39.8,75.8,40.1z M82,44
					c-1.2,0.1-0.5-2-2-3.4c-1.5-1.5-0.7-2,0.7-2.6c1-0.4,0.2,1.6,1.4,2.8C83.2,41.8,83.2,43.8,82,44z"/>
			</g>
		</g>
	</g>
</g>
<polygon class="st10" points="140.9,514.4 82.8,444.1 8.2,534.5 82.8,533.8 124.5,534.2 "/>
<polygon class="st10" points="122.8,560.1 103.1,560.1 121.7,537.5 33.9,537.5 33.9,602.4 72.6,602.4 72.6,566.1 93.7,566.1 
	93.7,602.4 119.8,602.4 119.8,602.2 122.8,602.2 "/>
</svg>
