<svg id="Layer_1" data-name="Layer 1" xmlns="http://www.w3.org/2000/svg" xmlns:xlink="http://www.w3.org/1999/xlink" viewBox="0 0 1366 768"><defs><style>.cls-1,.cls-12,.cls-21,.cls-22,.cls-23,.cls-24,.cls-3,.cls-4,.cls-5,.cls-6,.cls-7{fill:none;}.cls-2{fill:#7d7e81;}.cls-21,.cls-22,.cls-23,.cls-24,.cls-3,.cls-4,.cls-5,.cls-6,.cls-7{stroke:#7d7e81;}.cls-12,.cls-21,.cls-22,.cls-23,.cls-24,.cls-3,.cls-4,.cls-5,.cls-6,.cls-7{stroke-miterlimit:10;}.cls-4{stroke-dasharray:7.71 7.71;}.cls-5{stroke-dasharray:7.2 7.2;}.cls-6{stroke-dasharray:8.16 8.16;}.cls-7{stroke-width:3px;}.cls-8{font-size:16.34px;}.cls-17,.cls-8{fill:#ed4e0f;}.cls-13,.cls-17,.cls-8{font-family:ArialMT, Arial;}.cls-9{letter-spacing:-0.04em;}.cls-10{letter-spacing:-0.02em;}.cls-11{letter-spacing:-0.02em;}.cls-12{stroke:#666;}.cls-13{font-size:15px;}.cls-13,.cls-25{fill:#666;}.cls-14{letter-spacing:-0.06em;}.cls-15{letter-spacing:-0.02em;}.cls-16{letter-spacing:0em;}.cls-17{font-size:16px;}.cls-18{letter-spacing:-0.07em;}.cls-19{letter-spacing:-0.04em;}.cls-20{letter-spacing:-0.02em;}.cls-21{stroke-dasharray:7.38 7.38;}.cls-22{stroke-dasharray:7.96 7.96;}.cls-23{stroke-dasharray:7.4 7.4;}.cls-24{stroke-width:5px;}.cls-26{clip-path:url(#clip-path);}</style><clipPath id="clip-path"><ellipse class="cls-1" cx="496" cy="122.12" rx="36" ry="35.88"/></clipPath></defs><title>Artboard 1</title><circle class="cls-2" cx="676.56" cy="163.37" r="7.71"/><rect class="cls-2" x="672.89" y="181.7" width="7.35" height="31.57"/><rect class="cls-2" x="670.02" y="213" width="13.09" height="194.22"/><rect class="cls-2" x="666.19" y="402.9" width="20.86" height="174.1"/><path class="cls-2" d="M676,99.89a66.56,66.56,0,0,0-48.28,22.3l3.84,2.77a62,62,0,0,1,91.88,0l4.05-2.54A66.57,66.57,0,0,0,676,99.89Z"/><path class="cls-2" d="M676.24,112.47a54,54,0,0,0-38.31,17.12l3.14,2.27a50.32,50.32,0,0,1,72.24-.57l3.32-2.08A54,54,0,0,0,676.24,112.47Z"/><path class="cls-2" d="M676.55,126A40.52,40.52,0,0,0,649,137.58l2.38,1.72a37.77,37.77,0,0,1,51-1.12l2.52-1.59A40.5,40.5,0,0,0,676.55,126Z"/><path class="cls-2" d="M676.89,141.09a25.4,25.4,0,0,0-15.34,5.56l1.53,1.1a23.74,23.74,0,0,1,26.49-1.54l1.69-1.06A25.43,25.43,0,0,0,676.89,141.09Z"/><line class="cls-3" x1="772" y1="192.49" x2="768" y2="192.49"/><line class="cls-4" x1="760.29" y1="192.49" x2="717.86" y2="192.49"/><line class="cls-3" x1="714" y1="192.49" x2="710" y2="192.49"/><line class="cls-3" x1="772" y1="365.31" x2="768" y2="365.31"/><line class="cls-5" x1="760.8" y1="365.31" x2="721.21" y2="365.31"/><line class="cls-3" x1="717.61" y1="365.31" x2="713.61" y2="365.31"/><line class="cls-3" x1="713.02" y1="495.41" x2="713.02" y2="491.41"/><polyline class="cls-6" points="713.02 483.25 713.02 375.51 713.02 373.08"/><line class="cls-3" x1="713.02" y1="369" x2="713.02" y2="365"/><polygon class="cls-7" points="802 562.87 697.38 562.87 709.33 505.45 790.06 505.45 802 562.87"/><line class="cls-7" x1="749.69" y1="505.45" x2="749.69" y2="562.87"/><line class="cls-7" x1="729.79" y1="505.45" x2="724.11" y2="562.87"/><line class="cls-7" x1="769.59" y1="505.45" x2="777.55" y2="562.87"/><line class="cls-7" x1="703.64" y1="533.31" x2="795.75" y2="533.31"/><text class="cls-8" transform="translate(456.43 380.81)">LOCA<tspan class="cls-9" x="44.49" y="0">L</tspan><tspan x="52.97" y="0" xml:space="preserve"> CONNECTIVIT</tspan><tspan class="cls-10" x="168.24" y="0">Y</tspan></text><text class="cls-8" transform="translate(456.43 181.81)">GLOBA<tspan class="cls-9" x="56.3" y="0">L</tspan><tspan x="64.78" y="0" xml:space="preserve"> CONNECTIVIT</tspan><tspan class="cls-11" x="180.05" y="0">Y</tspan></text><circle class="cls-12" cx="777.69" cy="192.43" r="5.65"/><circle class="cls-12" cx="778.08" cy="365.26" r="5.65"/><text class="cls-13" transform="translate(456.43 401.92)">WiFi<tspan class="cls-14" x="29.99" y="0"> </tspan><tspan x="33.33" y="0">A</tspan><tspan class="cls-15" x="43.33" y="0">P</tspan><tspan class="cls-16" x="53.06" y="0" xml:space="preserve"> and Cellular BTS</tspan></text><text class="cls-17" transform="translate(790.19 361.45)">SOLAR <tspan class="cls-18" x="58.69" y="0">P</tspan><tspan x="68.17" y="0">ANE</tspan><tspan class="cls-19" x="101.07" y="0">L</tspan><tspan x="109.38" y="0" xml:space="preserve"> &amp; HU</tspan><tspan class="cls-20" x="152.05" y="0">T</tspan></text><text class="cls-13" transform="translate(790.19 379.57)">Cache server<tspan x="0" y="18">HF Radio</tspan><tspan x="0" y="36">12v Batteries or generator</tspan><tspan x="0" y="54">Boost &amp; Charge controller</tspan></text><text class="cls-17" transform="translate(790.08 192.02)">TELESCOPIC MAS<tspan class="cls-20" x="140.48" y="0">T</tspan></text><text class="cls-13" transform="translate(790.08 208.92)">15 meters</text><text class="cls-13" transform="translate(456.08 200.92)">Shortwave, HF radio</text><line class="cls-3" x1="536" y1="305.5" x2="540" y2="305.5"/><polyline class="cls-21" points="547.38 305.5 631.62 305.5 632.31 305.5"/><line class="cls-3" x1="636" y1="305.5" x2="640" y2="305.5"/><line class="cls-3" x1="536" y1="272.5" x2="540" y2="272.5"/><polyline class="cls-21" points="547.38 272.5 631.62 272.5 632.31 272.5"/><line class="cls-3" x1="636" y1="272.5" x2="640" y2="272.5"/><line class="cls-3" x1="535.86" y1="352.82" x2="535.87" y2="348.82"/><line class="cls-22" x1="535.88" y1="340.86" x2="535.91" y2="312.98"/><line class="cls-3" x1="535.91" y1="309" x2="535.92" y2="305"/><polygon class="cls-2" points="540.85 351.37 535.86 360 530.88 351.36 540.85 351.37"/><line class="cls-3" x1="535.91" y1="213.18" x2="535.91" y2="217.18"/><line class="cls-23" x1="535.9" y1="224.58" x2="535.85" y2="265.3"/><line class="cls-3" x1="535.85" y1="269" x2="535.84" y2="273"/><polygon class="cls-2" points="530.92 214.63 535.92 206 540.89 214.64 530.92 214.63"/><line class="cls-24" x1="710.5" y1="564" x2="710.5" y2="577"/><line class="cls-24" x1="788.5" y1="564" x2="788.5" y2="577"/><rect class="cls-25" x="559.31" y="542.38" width="53.73" height="35.64"/><polygon class="cls-25" points="628 540.09 586.18 539.72 544.35 540.09 586.18 491.34 628 540.09"/><g class="cls-26"><path class="cls-25" d="M476.21,94.7c-2.28,1.37-2.34,2-5.47,3.21s-3.81.88-6.05,4.77-6.15,9.54-5.57,13-.19,5.46,1.66,7.3A14.06,14.06,0,0,1,464,127.5c.39.88-.39,1.56-.39,3s.2,1.56,1.47,1.56,0,1,1.07,2.72,1.27,2.24,2.74,6.52,4.39,10.42,8.39,13.24-2.14-2.43-2.44-5.06,1.08-2.63,1.08-4.67,1.95-.1,2.54-1.56-.2-3.31.48-5.35.79-3.51-1.85-4.58a12.53,12.53,0,0,1-5.37-4.18,8.7,8.7,0,0,0-3.42-3c-1.76-1-2.54.19-3.71-.59s-.68-1.07-1.76-2.82-1.85-1.26-1.95-2.72,1.76-3.7,2.05-3.51,0,2.24.78,2.34-.29-2.14.59-3.6,1.56-3.51,3.51-4.67,2.05-2.34,4.2-2.73,0-2.73,1.47-2.53,2.44,1.56,2.73-.1.1-1.26-1.56-3.11-3.23-2.63-4.1-.39-1.37,4.18-2.45,3a2.3,2.3,0,0,1,.49-3.51c1.08-.49,3.32-2.82,4.89-1.85s3.22.68,3.51-.39-1.85-1.85-.68-3,3.51-1.66,3.51-.3-1,2.92.3,3.41,4.39-1.36,5.27-1.56,3.51-.48,5-1.65,3.12-3,4-3.6-3.61-.88-5.86-.3a62.36,62.36,0,0,1-7.32,1.37A12.81,12.81,0,0,0,476.21,94.7Z"/><path class="cls-25" d="M463.52,119.72c-.27.78.48-.2,1,1.16s-.78,1.27.69,1.66,3.51.48,2.73-.49S463.71,119.13,463.52,119.72Z"/><path class="cls-25" d="M490.76,97c-1,.33-2.34.87-.88,1.07s3.81,0,3.42-.78S491.46,96.79,490.76,97Z"/><path class="cls-25" d="M519.66,138.4a3.19,3.19,0,0,0-2,1.56,13.26,13.26,0,0,0-1.07,2.92c-.39,1,.19,1.85,1.17.58S520.84,138.11,519.66,138.4Z"/><path class="cls-25" d="M494.67,99.76c-1,1.09-2.84,3.31-1.66,3.12s2.05-1.76,2.14-.69,2.15,1.17,2.25.2S496.27,98,494.67,99.76Z"/><path class="cls-25" d="M531.28,109.59s-6-12.85-8.78-12.36a37.11,37.11,0,0,1-5.47.49c-2.54.19-.49-1.17-1.57-1.85s-2,1.94-3.32,1.75-1.85-.29-3.51-1.85-3.52-.39-5,.29a26.73,26.73,0,0,0-3.71,2.53c-1.17.78.49,1,1.46,1.37a3.63,3.63,0,0,0,3.32-.2c.88-.68.39-1.65,1.66-2.14s-.09,1.75.39,2.92-1.36,1.17-2.53,1.27-1.76-.1-3.62-.88-1.46,1.75-2.15,2-3.32,1.17-3.12,2.14,1.76,2,.39,1.76-3.13.68-3.22,1.75a3.62,3.62,0,0,0,1.85,2.82c.59.1,2.74-.58,3.13-1.65s1.27-1.76,2.83-2.34,2.05,0,3.12,1.36-.09,1.17.39,2.24,1.27-1.36,1.86-1.15,2.34,2.13,2.64,1,.68-1.36,1.36-.38,3.42,1.16,4.1,2.23-1.56,1.46-2.53,1.27-5.08-.1-6.06-.29a4.72,4.72,0,0,1-3.12-3c-.59-1.75-2.74-.39-3.81.19s-4.1.88-4.94,1.47-1.51,2.33-2.78,3.5-2.14,3.11-1.85,4.28-.1,4.38,1.07,6.52,4.4,2.92,6.74,2.92,3.71-.29,4.79.49,2.14,5.84,2.53,7.59-1.36,4.09-1,5.74,1.37,5.46,2.63,6.23,6.64-3,7.23-4.57a15.72,15.72,0,0,1,3.69-5.45c1.63-1.46,0-3,.31-5.65s4-5.64,4.4-6.81-.88-1-3.22-1.46-3.62-6.81-3.91-8.47.68.29,1.46,1.75,2.15,4.29,3.13,6.14,2.54-1.27,4.1-2.35a2.64,2.64,0,0,0,.88-3.49c-.39-1-2.25-1.08-3-2s-.19-1.75.78-.19a3.87,3.87,0,0,0,3.81,1.55c1.08-.09,2.15,2,2.44,3.7s2.54,5.65,2.54,5.65.1-3.51.3-5a3.62,3.62,0,0,1,2.34-3.21Zm-16.79-.78c-1.08.2-2-.58-2.93-.29s-.92-.41-.29-1.56,1.17-.39,2.44.2S515.56,108.62,514.49,108.81Zm5.51,3.31c-1,.1-.43-1.65-1.79-2.92s-.65-1.72.57-2.24c.85-.35.2,1.37,1.22,2.34S521,112,520,112.12Z"/></g><polygon class="cls-25" points="571.78 503.63 520.7 444.09 455 520.67 520.7 520.08 557.39 520.41 571.78 503.63"/><polygon class="cls-25" points="555.84 542.38 538.53 542.38 554.94 523.26 477.63 523.26 477.63 578.21 511.7 578.21 511.7 547.49 530.25 547.49 530.25 578.21 553.23 578.21 553.23 578.03 555.84 578.03 555.84 542.38"/></svg>