<svg id="Layer_1" data-name="Layer 1" xmlns="http://www.w3.org/2000/svg" viewBox="0 0 1366 768"><defs><style>.cls-1{fill:#7d7e81;}.cls-13,.cls-2,.cls-20,.cls-22,.cls-23,.cls-24,.cls-3,.cls-4,.cls-5,.cls-6,.cls-7{fill:none;}.cls-2,.cls-20,.cls-22,.cls-23,.cls-24,.cls-3,.cls-4,.cls-5,.cls-6,.cls-7{stroke:#7d7e81;}.cls-13,.cls-2,.cls-20,.cls-22,.cls-23,.cls-24,.cls-26,.cls-3,.cls-4,.cls-5,.cls-6,.cls-7{stroke-miterlimit:10;}.cls-3{stroke-dasharray:8.05 8.05;}.cls-4{stroke-dasharray:7.2 7.2;}.cls-5{stroke-dasharray:7.34 7.34;}.cls-6{stroke-dasharray:6.83 6.83;}.cls-7{stroke-width:3px;}.cls-8{font-size:22px;}.cls-10,.cls-8{fill:#ed4e0f;}.cls-10,.cls-14,.cls-8{font-family:ArialMT, Arial;}.cls-9{letter-spacing:-0.06em;}.cls-10{font-size:16.34px;}.cls-11{letter-spacing:-0.04em;}.cls-12{letter-spacing:-0.02em;}.cls-13{stroke:#666;}.cls-14{font-size:15px;}.cls-14,.cls-25,.cls-26{fill:#666;}.cls-15{letter-spacing:-0.06em;}.cls-16{letter-spacing:-0.02em;}.cls-17{letter-spacing:-0.07em;}.cls-18{letter-spacing:-0.04em;}.cls-19{letter-spacing:0em;}.cls-20{stroke-dasharray:7.91 7.91;}.cls-21{letter-spacing:-0.02em;}.cls-22{stroke-dasharray:8.67 8.67;}.cls-23{stroke-dasharray:7.93 7.93;}.cls-24{stroke-width:5px;}.cls-26{stroke:#fff;stroke-width:2px;}</style></defs><title>Artboard 1</title><circle class="cls-1" cx="669.56" cy="328.37" r="7.71"/><rect class="cls-1" x="665.89" y="340.7" width="7.35" height="31.57"/><rect class="cls-1" x="663.02" y="369.54" width="13.09" height="37.68"/><rect class="cls-1" x="659.19" y="402.9" width="20.86" height="174.1"/><path class="cls-1" d="M668,260.89a66.56,66.56,0,0,0-48.28,22.3l3.84,2.77a62,62,0,0,1,91.88,0l4.05-2.54A66.57,66.57,0,0,0,668,260.89Z"/><path class="cls-1" d="M668.24,273.47a54,54,0,0,0-38.31,17.12l3.14,2.27a50.32,50.32,0,0,1,72.24-.57l3.32-2.08A54,54,0,0,0,668.24,273.47Z"/><path class="cls-1" d="M668.55,287A40.52,40.52,0,0,0,641,298.58l2.38,1.72a37.77,37.77,0,0,1,51-1.12l2.52-1.59A40.5,40.5,0,0,0,668.55,287Z"/><path class="cls-1" d="M668.89,302.09a25.4,25.4,0,0,0-15.34,5.56l1.53,1.1a23.74,23.74,0,0,1,26.49-1.54l1.69-1.06A25.43,25.43,0,0,0,668.89,302.09Z"/><line class="cls-2" x1="812" y1="328.49" x2="808" y2="328.49"/><polyline class="cls-3" points="799.95 328.49 693.63 328.49 691.28 328.49"/><line class="cls-2" x1="687.26" y1="328.49" x2="683.26" y2="328.49"/><line class="cls-2" x1="808" y1="435.31" x2="804" y2="435.31"/><line class="cls-4" x1="796.8" y1="435.31" x2="757.21" y2="435.31"/><line class="cls-2" x1="753.61" y1="435.31" x2="749.61" y2="435.31"/><line class="cls-2" x1="750.02" y1="495.41" x2="750.02" y2="491.41"/><line class="cls-5" x1="750.02" y1="484.07" x2="750.02" y2="443.67"/><line class="cls-2" x1="750.02" y1="440" x2="750.02" y2="436"/><line class="cls-2" x1="668.75" y1="251.82" x2="668.75" y2="247.82"/><line class="cls-6" x1="668.75" y1="240.99" x2="668.75" y2="203.42"/><line class="cls-2" x1="668.75" y1="200" x2="668.75" y2="196"/><polygon class="cls-7" points="802 562.87 697.38 562.87 709.33 505.45 790.06 505.45 802 562.87"/><line class="cls-7" x1="749.69" y1="505.45" x2="749.69" y2="562.87"/><line class="cls-7" x1="729.79" y1="505.45" x2="724.11" y2="562.87"/><line class="cls-7" x1="769.59" y1="505.45" x2="777.55" y2="562.87"/><line class="cls-7" x1="703.64" y1="533.31" x2="795.75" y2="533.31"/><text class="cls-8" transform="translate(829.43 316.81)">GSM<tspan class="cls-9" x="50.11" y="0"> </tspan><tspan x="55.01" y="0">ANTENN</tspan><tspan class="cls-9" x="145.46" y="0">A</tspan></text><text class="cls-10" transform="translate(445.43 397.81)">GLOBA<tspan class="cls-11" x="56.3" y="0">L</tspan><tspan x="64.78" y="0" xml:space="preserve"> CONNECTIVIT</tspan><tspan class="cls-12" x="180.05" y="0">Y</tspan></text><circle class="cls-13" cx="817.69" cy="328.43" r="5.65"/><circle class="cls-13" cx="814.08" cy="435.26" r="5.65"/><text class="cls-14" transform="translate(829.43 333.92)">Local coverage <tspan x="0" y="18">BTS: Sysmocom 1020 </tspan><tspan x="0" y="36">WiFi</tspan><tspan class="cls-15" x="29.99" y="36"> </tspan><tspan x="33.33" y="36">A</tspan><tspan class="cls-16" x="43.33" y="36">P</tspan></text><text class="cls-8" transform="translate(829.19 432.45)">SOLAR <tspan class="cls-17" x="80.7" y="0">P</tspan><tspan x="93.74" y="0">ANE</tspan><tspan class="cls-18" x="138.97" y="0">L</tspan></text><text class="cls-14" transform="translate(829.19 453.57)">Cache: RasPi<tspan x="0" y="18">HF Radio:</tspan><tspan class="cls-15" x="67.52" y="18"> </tspan><tspan class="cls-19" x="70.86" y="18">Apache Labs</tspan><tspan x="0" y="36">12v Batteries</tspan><tspan x="0" y="54">Boost &amp; Charge cntl</tspan></text><line class="cls-2" x1="810.43" y1="195.85" x2="806.43" y2="195.85"/><polyline class="cls-20" points="798.52 195.85 679.48 195.85 675.95 195.85"/><line class="cls-2" x1="672" y1="195.85" x2="668" y2="195.85"/><text class="cls-8" transform="translate(828.08 183.02)">TELESCOPIC <tspan x="0" y="26.4">MAS</tspan><tspan class="cls-21" x="47.67" y="26.4">T</tspan><tspan x="60.71" y="26.4" xml:space="preserve"> (15 m)</tspan></text><circle class="cls-13" cx="816.69" cy="195.64" r="5.65"/><text class="cls-14" transform="translate(828.08 226.92)">Global commectivity<tspan x="0" y="18">HF</tspan><tspan class="cls-9" x="20" y="18"> </tspan><tspan x="23.33" y="18">Antennas</tspan></text><line class="cls-2" x1="536" y1="269.71" x2="540" y2="269.71"/><line class="cls-22" x1="548.67" y1="269.71" x2="613.67" y2="269.71"/><line class="cls-2" x1="618" y1="269.71" x2="622" y2="269.71"/><line class="cls-2" x1="535.85" y1="364.82" x2="535.85" y2="360.82"/><polyline class="cls-23" points="535.86 352.9 535.95 277.88 535.95 277.6"/><line class="cls-2" x1="535.96" y1="273.63" x2="535.96" y2="269.63"/><polygon class="cls-1" points="540.84 363.37 535.84 372 530.87 363.36 540.84 363.37"/><line class="cls-24" x1="710.5" y1="564" x2="710.5" y2="577"/><line class="cls-24" x1="788.5" y1="564" x2="788.5" y2="577"/><polygon class="cls-25" points="611.14 514.02 535.57 513.35 460 514.02 535.57 425.94 611.14 514.02"/><polygon class="cls-26" points="487.03 515 487.03 578.21 526.23 578.21 526.23 542.87 547.55 542.87 547.55 578.21 584.11 578.21 584.11 515 487.03 515"/><rect class="cls-26" x="573.63" y="533.16" width="60.52" height="45.05"/><polygon class="cls-26" points="651 538.19 603.89 537.77 556.78 538.19 603.89 483.29 651 538.19"/></svg>