<?xml version="1.0" encoding="utf-8"?>
<!-- Generator: Adobe Illustrator 22.0.1, SVG Export Plug-In . SVG Version: 6.00 Build 0)  -->
<svg version="1.1" id="Layer_1" xmlns="http://www.w3.org/2000/svg" xmlns:xlink="http://www.w3.org/1999/xlink" x="0px" y="0px"
	 viewBox="0 0 1366 768" style="enable-background:new 0 0 1366 768;" xml:space="preserve">
<style type="text/css">
	.st0{fill:none;stroke:#666666;stroke-width:7;stroke-miterlimit:10;}
	.st1{fill-rule:evenodd;clip-rule:evenodd;fill:#666666;stroke:#666666;stroke-miterlimit:10;}
	.st2{fill:none;}
	.st3{fill:#7D7E81;}
	.st4{fill:none;stroke:#7D7E81;stroke-miterlimit:10;}
	.st5{fill:none;stroke:#7D7E81;stroke-miterlimit:10;stroke-dasharray:8.7368,8.7368;}
	.st6{fill:none;stroke:#7D7E81;stroke-miterlimit:10;stroke-dasharray:7.8571,7.8571;}
	.st7{fill:none;stroke:#7D7E81;stroke-miterlimit:10;stroke-dasharray:8.2727,8.2727;}
	.st8{fill:none;stroke:#7D7E81;stroke-width:3;stroke-miterlimit:10;}
	.st9{fill:#ED4E0F;}
	.st10{font-family:'ArialMT';}
	.st11{font-size:20px;}
	.st12{fill-rule:evenodd;clip-rule:evenodd;fill:none;stroke:#666666;stroke-miterlimit:10;}
	.st13{fill:#666666;}
	.st14{font-size:12px;}
	.st15{fill:none;stroke:#7D7E81;stroke-miterlimit:10;stroke-dasharray:10.838,10.838;}
</style>
<g>
	<g>
		<line class="st0" x1="752.8" y1="378.2" x2="792" y2="556.7"/>
	</g>
	<g>
		<line class="st0" x1="752.8" y1="378.2" x2="713.5" y2="557.5"/>
	</g>
	<circle class="st1" cx="752" cy="392" r="22.3"/>
	<line class="st0" x1="718.9" y1="532.9" x2="786.6" y2="532.9"/>
	<line class="st0" x1="742" y1="427.4" x2="763.5" y2="427.4"/>
	<line class="st0" x1="775.1" y1="477.5" x2="738.9" y2="440.5"/>
	<line class="st0" x1="784.3" y1="524.4" x2="729.7" y2="486.7"/>
	<line class="st0" x1="721.2" y1="524.4" x2="775.8" y2="486.7"/>
	<line class="st0" x1="730.4" y1="477.5" x2="766.6" y2="440.5"/>
</g>
<rect x="52.5" y="49.5" class="st2" width="70" height="220"/>
<g>
	<g>
		<circle class="st3" cx="619.2" cy="258.6" r="9.4"/>
		<rect x="614.7" y="273.7" class="st3" width="9" height="38.6"/>
		<rect x="611.1" y="309" class="st3" width="16" height="46.1"/>
		<rect x="606.5" y="349.9" class="st3" width="25.5" height="213.1"/>
	</g>
	<g>
		<path class="st3" d="M617.2,176c-23.6,0.5-44.6,11-59.1,27.3l4.7,3.4c13.5-14.9,32.8-24.4,54.5-24.9c22.9-0.5,43.7,9.2,57.9,24.9
			l5-3.1C664.8,186.2,642.2,175.5,617.2,176z"/>
		<path class="st3" d="M617.5,191.4c-18.5,0.4-35.1,8.4-46.9,21l3.8,2.8c10.9-11.4,26.1-18.7,43.2-19c17.7-0.4,33.8,6.7,45.3,18.4
			l4.1-2.6C654.6,198.9,636.9,191,617.5,191.4z"/>
		<path class="st3" d="M617.9,208c-13.2,0.3-25,5.7-33.7,14.2l2.9,2.1c8.1-7.7,18.9-12.5,30.9-12.8c12-0.3,23.1,4.1,31.5,11.4
			l3.1-1.9C643.5,212.6,631.3,207.6,617.9,208z"/>
		<path class="st3" d="M618.3,226.5c-7.1,0.2-13.6,2.7-18.8,6.8l1.9,1.4c4.7-3.6,10.6-5.8,17-5.9c5.6-0.1,11,1.4,15.5,4.1l2.1-1.3
			C630.9,228.2,624.8,226.3,618.3,226.5z"/>
	</g>
</g>
<g>
	<path class="st3" d="M813.3,388.8c-0.4-16.3-7.6-30.8-18.9-40.8l-2.3,3.3c10.3,9.3,16.9,22.7,17.2,37.7c0.4,15.8-6.3,30.2-17.2,40
		l2.2,3.4C806.3,421.8,813.7,406.1,813.3,388.8z"/>
	<path class="st3" d="M802.7,389.1c-0.3-12.8-5.8-24.3-14.5-32.4l-1.9,2.6c7.9,7.5,12.9,18.1,13.2,29.8c0.3,12.2-4.6,23.3-12.7,31.3
		l1.8,2.8C797.5,414.7,803,402.5,802.7,389.1z"/>
</g>
<g>
	<path class="st3" d="M692.3,388.8c0.4-16.3,7.6-30.8,18.9-40.8l2.3,3.3c-10.3,9.3-16.9,22.7-17.2,37.7c-0.4,15.8,6.3,30.2,17.2,40
		l-2.2,3.4C699.4,421.8,691.9,406.1,692.3,388.8z"/>
	<path class="st3" d="M703,389.1c0.3-12.8,5.8-24.3,14.5-32.4l1.9,2.6c-7.9,7.5-12.9,18.1-13.2,29.8c-0.3,12.2,4.6,23.3,12.7,31.3
		l-1.8,2.8C708.1,414.7,702.7,402.5,703,389.1z"/>
</g>
<g>
	<g>
		<line class="st4" x1="752" y1="329" x2="752" y2="324.5"/>
		<polyline class="st5" points="752,315.8 752,168.1 752,162.9 		"/>
		<line class="st4" x1="752" y1="158.5" x2="752" y2="154"/>
	</g>
</g>
<g>
	<g>
		<line class="st4" x1="926" y1="153.5" x2="921.5" y2="153.5"/>
		<polyline class="st5" points="912.8,153.5 765.1,153.5 759.9,153.5 		"/>
		<line class="st4" x1="755.5" y1="153.5" x2="751" y2="153.5"/>
	</g>
</g>
<g>
	<g>
		<line class="st4" x1="966" y1="356.5" x2="961.5" y2="356.5"/>
		<line class="st6" x1="953.6" y1="356.5" x2="910.4" y2="356.5"/>
		<line class="st4" x1="906.5" y1="356.5" x2="902" y2="356.5"/>
	</g>
</g>
<g>
	<g>
		<line class="st4" x1="902.5" y1="457" x2="902.5" y2="452.5"/>
		<line class="st7" x1="902.5" y1="444.2" x2="902.5" y2="365.6"/>
		<line class="st4" x1="902.5" y1="361.5" x2="902.5" y2="357"/>
	</g>
</g>
<g>
	<polygon class="st8" points="974.3,555.5 829.5,555.5 846,476 957.8,476 	"/>
	<line class="st8" x1="901.9" y1="476" x2="901.9" y2="555.5"/>
	<line class="st8" x1="874.4" y1="476" x2="866.5" y2="555.5"/>
	<line class="st8" x1="929.5" y1="476" x2="940.5" y2="555.5"/>
	<line class="st8" x1="838.2" y1="514.6" x2="965.7" y2="514.6"/>
</g>
<text transform="matrix(1 0 0 1 947.0771 144.1025)" class="st9 st10 st11">GSM ANTENNA</text>
<circle class="st12" cx="932.6" cy="153.4" r="6.9"/>
<circle class="st12" cx="973.6" cy="356.4" r="6.9"/>
<text transform="matrix(1 0 0 1 947.0762 162.603)"><tspan x="0" y="0" class="st13 st10 st14">Local coverage </tspan><tspan x="0" y="14.4" class="st13 st10 st14">BTS: Sysmocom 1020 </tspan><tspan x="0" y="28.8" class="st13 st10 st14">WiFi AP</tspan></text>
<text transform="matrix(1 0 0 1 992.0771 348.1025)" class="st9 st10 st11">SOLAR PANEL</text>
<text transform="matrix(1 0 0 1 992.0762 366.603)"><tspan x="0" y="0" class="st13 st10 st14">Cache: RasPi </tspan><tspan x="0" y="14.4" class="st13 st10 st14">HF Radio: Apache Labs </tspan><tspan x="0" y="28.8" class="st13 st10 st14">12v Batteries</tspan><tspan x="0" y="43.2" class="st13 st10 st14">Boost &amp; Charge cntl</tspan></text>
<g>
	<g>
		<line class="st4" x1="617.5" y1="171.5" x2="617.6" y2="167"/>
		<line class="st15" x1="617.9" y1="156.2" x2="618.4" y2="139.9"/>
		<line class="st4" x1="618.5" y1="134.5" x2="618.5" y2="130"/>
	</g>
</g>
<g>
	<g>
		<line class="st4" x1="619" y1="130.5" x2="614.5" y2="130.5"/>
		<polyline class="st5" points="605.8,130.5 458.1,130.5 452.9,130.5 		"/>
		<line class="st4" x1="448.5" y1="130.5" x2="444" y2="130.5"/>
	</g>
</g>
<text transform="matrix(1 0 0 1 239.0771 121.1025)"><tspan x="0" y="0" class="st9 st10 st11">TELESCOPIC MAST </tspan><tspan x="0" y="24" class="st9 st10 st11">15mt</tspan></text>
<circle class="st12" cx="434.6" cy="130.4" r="6.9"/>
<text transform="matrix(1 0 0 1 239.0762 162.603)"><tspan x="0" y="0" class="st13 st10 st14">Global commectivity</tspan><tspan x="0" y="14.4" class="st13 st10 st14">HF Antennas </tspan></text>
</svg>
