<?xml version="1.0" encoding="utf-8"?>
<!-- Generator: Adobe Illustrator 22.0.1, SVG Export Plug-In . SVG Version: 6.00 Build 0)  -->
<svg version="1.1" id="Layer_1" xmlns="http://www.w3.org/2000/svg" xmlns:xlink="http://www.w3.org/1999/xlink" x="0px" y="0px"
	 viewBox="0 0 1182.8 279.3" style="enable-background:new 0 0 1182.8 279.3;" xml:space="preserve">
<style type="text/css">
	.st0{fill:none;stroke:#777777;stroke-miterlimit:10;}
	.st1{fill:none;stroke:#666666;stroke-width:9;stroke-linecap:round;stroke-linejoin:round;stroke-miterlimit:10;}
	.st2{fill:none;stroke:#666666;stroke-width:9;stroke-linecap:round;stroke-miterlimit:10;}
	.st3{fill:#4D4D4D;}
	.st4{font-family:'ShreeDev0714';}
	.st5{font-size:228.4711px;}
</style>
<path class="st0" d="M1199.9,384.2"/>
<path class="st1" d="M20.1,12C4.9,77.6,38.5,116.4,128.8,111.8"/>
<path class="st2" d="M33,90.9c-11.3,62,18.2,97.6,95.3,94.4"/>
<path class="st2" d="M55.9,175.6c-6.9,57.3,12.1,93.1,71.6,94.4"/>
<path class="st1" d="M1167.6,9.4c15.2,65.6-18.4,104.4-108.8,99.8"/>
<path class="st2" d="M1154.8,88.3c11.3,62-18.2,97.6-95.3,94.4"/>
<path class="st2" d="M1131.9,173c6.9,57.3-12.1,93.1-71.6,94.4"/>
<path class="st0" d="M517.1,258.7"/>
<text transform="matrix(1 0 0 1 135.1503 274.0448)" class="st3 st4 st5">HERMES</text>
</svg>
